<svg width="8" height="15" viewBox="0 0 8 15" fill="none" xmlns="http://www.w3.org/2000/svg">
    <path d="M6.83001 -4.76837e-06C6.68062 -0.000512123 6.53301 0.0324602 6.39803 0.096489C6.26305 0.160517 6.14413 0.253976 6.05001 0.369997L1.22001 6.37C1.07293 6.54893 0.992523 6.77337 0.992523 7.005C0.992523 7.23662 1.07293 7.46106 1.22001 7.64L6.22001 13.64C6.38975 13.8442 6.63366 13.9726 6.89809 13.997C7.16251 14.0214 7.42579 13.9397 7.63001 13.77C7.83423 13.6003 7.96265 13.3563 7.98703 13.0919C8.01141 12.8275 7.92975 12.5642 7.76001 12.36L3.29001 7L7.61001 1.64C7.73229 1.49321 7.80997 1.31447 7.83385 1.12492C7.85773 0.935372 7.82681 0.742949 7.74476 0.570421C7.6627 0.397893 7.53294 0.252481 7.37083 0.151392C7.20872 0.0503016 7.02104 -0.00223637 6.83001 -4.76837e-06Z" fill="#EFEFEF"/>
</svg>
