<svg width="17" height="14" viewBox="0 0 17 14" fill="none" xmlns="http://www.w3.org/2000/svg">
    <path d="M15.104 0.955023C15.2063 0.850572 15.3285 0.767594 15.4634 0.710947C15.5982 0.6543 15.743 0.625122 15.8892 0.625122C16.0355 0.625122 16.1803 0.6543 16.3151 0.710947C16.4499 0.767594 16.5721 0.850572 16.6745 0.955023C17.1035 1.38852 17.1095 2.08902 16.6895 2.53002L7.81997 13.015C7.71927 13.1256 7.59707 13.2145 7.46084 13.2762C7.32461 13.3379 7.17722 13.3712 7.02768 13.374C6.87814 13.3768 6.72961 13.3491 6.59116 13.2925C6.45271 13.236 6.32725 13.1517 6.22247 13.045L0.82547 7.57602C0.617326 7.36375 0.500732 7.07832 0.500732 6.78102C0.500732 6.48373 0.617326 6.19829 0.82547 5.98602C0.927839 5.88157 1.05002 5.79859 1.18485 5.74195C1.31969 5.6853 1.46447 5.65612 1.61072 5.65612C1.75697 5.65612 1.90175 5.6853 2.03659 5.74195C2.17142 5.79859 2.2936 5.88157 2.39597 5.98602L6.97397 10.6255L15.074 0.988023C15.0833 0.976431 15.0933 0.965411 15.104 0.955023Z" fill="#EFEFEF"/>
</svg>
