<svg width="100" height="100" viewBox="0 0 100 100" fill="none" xmlns="http://www.w3.org/2000/svg">
    <path d="M68.5041 42.8899H57.4108L47.9293 63.1962C47.9293 63.1962 44.0805 54.0756 43.57 52.8997C41.3789 47.8116 38.0119 45.7007 35.5684 44.8173C32.9414 43.8708 30.4004 43.9569 28.4157 44.3355C26.2877 44.737 24.7906 45.4655 24.5038 45.6146L29.0639 54.5288L29.0008 54.5632C29.4654 54.3452 31.0485 53.8175 32.2187 54.2592C32.8037 54.4771 33.6297 55.1368 34.232 56.2841L44.5853 78.5694H51.2791L68.5041 42.8899ZM75.5076 29.9489C75.5076 26.49 72.7085 23.6907 69.2497 23.6907C65.791 23.6907 62.9919 26.49 62.9919 29.9489C62.9919 33.4079 65.791 36.2072 69.2497 36.2072C72.7085 36.2072 75.5076 33.4079 75.5076 29.9489ZM95.5145 49.9971C95.5145 75.0932 75.1004 95.5143 50 95.5143C24.8996 95.5143 4.48549 75.0932 4.48549 49.9971C4.48549 24.9011 24.9054 4.48001 50 4.48001C75.0946 4.48001 95.5145 24.9011 95.5145 49.9971ZM100 49.9971C100 22.4287 77.5726 0 50 0C22.4274 0 0 22.4287 0 49.9971C0 77.5655 22.4274 100 50 100C77.5726 100 100 77.5655 100 49.9971Z" fill="#EFEFEF"/>
</svg>
