<svg width="24" height="24" viewBox="0 0 24 24" fill="none" xmlns="http://www.w3.org/2000/svg">
    <path d="M11.0009 6.9883H12.9991V24H11.0009V6.9883ZM7.33409 12.8668C6.59983 12.2462 6.01236 11.486 5.61014 10.6358C5.20791 9.7857 5 8.8648 5 7.93339C5 7.00199 5.20791 6.08108 5.61014 5.23094C6.01236 4.38079 6.59983 3.62056 7.33409 3L8.67292 4.40819C8.14797 4.85146 7.72795 5.39464 7.44036 6.00214C7.15277 6.60964 7.00411 7.26776 7.00411 7.93339C7.00411 8.59902 7.15277 9.25714 7.44036 9.86464C7.72795 10.4721 8.14797 11.0153 8.67292 11.4586L7.33409 12.8668ZM16.6659 12.8668L15.3271 11.4586C15.852 11.0153 16.2721 10.4721 16.5596 9.86464C16.8472 9.25714 16.9959 8.59902 16.9959 7.93339C16.9959 7.26776 16.8472 6.60964 16.5596 6.00214C16.2721 5.39464 15.852 4.85146 15.3271 4.40819L16.6659 3C17.4002 3.62056 17.9876 4.38079 18.3899 5.23094C18.7921 6.08108 19 7.00199 19 7.93339C19 8.8648 18.7921 9.7857 18.3899 10.6358C17.9876 11.486 17.4002 12.2462 16.6659 12.8668Z"
          fill="#EFEFEF"/>
    <path d="M5.03333 16C3.78102 15.0685 2.76459 13.8607 2.06453 12.4721C1.36446 11.0836 1 9.55245 1 8C1 6.44755 1.36446 4.91642 2.06453 3.52786C2.76459 2.13931 3.78102 0.931471 5.03333 0L6.13333 1.45455C5.10872 2.21666 4.27709 3.20489 3.70431 4.34098C3.13153 5.47707 2.83333 6.72981 2.83333 8C2.83333 9.27019 3.13153 10.5229 3.70431 11.659C4.27709 12.7951 5.10872 13.7833 6.13333 14.5455L5.03333 16ZM18.9667 16L17.8667 14.5455C18.8913 13.7833 19.7229 12.7951 20.2957 11.659C20.8685 10.5229 21.1667 9.27019 21.1667 8C21.1667 6.72981 20.8685 5.47707 20.2957 4.34098C19.7229 3.20489 18.8913 2.21666 17.8667 1.45455L18.9667 0C20.219 0.931471 21.2354 2.13931 21.9355 3.52786C22.6355 4.91642 23 6.44755 23 8C23 9.55245 22.6355 11.0836 21.9355 12.4721C21.2354 13.8607 20.219 15.0685 18.9667 16Z"
          fill="#EFEFEF"/>
</svg>
