<svg width="24" height="20" viewBox="0 0 24 20" fill="none" xmlns="http://www.w3.org/2000/svg">
    <path d="M24 3.33333H20.4857C20.0571 1.41667 18.3429 0 16.2857 0C14.2286 0 12.5143 1.41667 12.0857 3.33333H0V5H12.0857C12.5143 6.91667 14.2286 8.33333 16.2857 8.33333C18.3429 8.33333 20.0571 6.91667 20.4857 5H24V3.33333ZM16.2857 6.66667C14.8286 6.66667 13.7143 5.58333 13.7143 4.16667C13.7143 2.75 14.8286 1.66667 16.2857 1.66667C17.7429 1.66667 18.8571 2.75 18.8571 4.16667C18.8571 5.58333 17.7429 6.66667 16.2857 6.66667ZM0 16.6667H3.51429C3.94286 18.5833 5.65714 20 7.71429 20C9.77143 20 11.4857 18.5833 11.9143 16.6667H24V15H11.9143C11.4857 13.0833 9.77143 11.6667 7.71429 11.6667C5.65714 11.6667 3.94286 13.0833 3.51429 15H0V16.6667ZM7.71429 13.3333C9.17143 13.3333 10.2857 14.4167 10.2857 15.8333C10.2857 17.25 9.17143 18.3333 7.71429 18.3333C6.25714 18.3333 5.14286 17.25 5.14286 15.8333C5.14286 14.4167 6.25714 13.3333 7.71429 13.3333Z" fill="#EFEFEF"/>
</svg>
