<svg width="22" height="22" viewBox="0 0 22 22" fill="none" xmlns="http://www.w3.org/2000/svg">
    <path d="M11 7.25001C10.0054 7.25001 9.05161 7.64509 8.34835 8.34836C7.64509 9.05162 7.25 10.0054 7.25 11C7.25 11.9946 7.64509 12.9484 8.34835 13.6517C9.05161 14.3549 10.0054 14.75 11 14.75C11.9946 14.75 12.9484 14.3549 13.6517 13.6517C14.3549 12.9484 14.75 11.9946 14.75 11C14.75 10.0054 14.3549 9.05162 13.6517 8.34836C12.9484 7.64509 11.9946 7.25001 11 7.25001ZM8.75 11C8.75 10.4033 8.98705 9.83097 9.40901 9.40901C9.83097 8.98706 10.4033 8.75001 11 8.75001C11.5967 8.75001 12.169 8.98706 12.591 9.40901C13.0129 9.83097 13.25 10.4033 13.25 11C13.25 11.5967 13.0129 12.169 12.591 12.591C12.169 13.013 11.5967 13.25 11 13.25C10.4033 13.25 9.83097 13.013 9.40901 12.591C8.98705 12.169 8.75 11.5967 8.75 11ZM8.63 21.221C9.40625 21.4063 10.202 21.5 11 21.5C11.7973 21.4988 12.5917 21.4044 13.367 21.2188C13.5898 21.1663 13.7908 21.0461 13.9426 20.8747C14.0943 20.7034 14.1893 20.4893 14.2145 20.2618L14.39 18.6643C14.4069 18.49 14.4651 18.3223 14.5597 18.1749C14.6543 18.0276 14.7826 17.9049 14.934 17.8169C15.0854 17.729 15.2555 17.6783 15.4304 17.6692C15.6052 17.66 15.7797 17.6926 15.9395 17.7643L17.4058 18.4063C17.6156 18.4986 17.8491 18.5234 18.0737 18.477C18.2983 18.4306 18.5029 18.3155 18.659 18.1475C19.7424 16.9802 20.5511 15.5854 21.026 14.0653C21.0941 13.8454 21.092 13.6098 21.0201 13.3911C20.9482 13.1724 20.81 12.9816 20.6248 12.845L19.328 11.8888C19.1864 11.7855 19.0712 11.6503 18.9918 11.494C18.9125 11.3378 18.8712 11.1649 18.8714 10.9897C18.8716 10.8144 18.9133 10.6417 18.9931 10.4857C19.0728 10.3296 19.1884 10.1946 19.3303 10.0918L20.6203 9.13926C20.8066 9.00304 20.9457 8.81191 21.0179 8.59266C21.0901 8.37342 21.0919 8.13707 21.023 7.91676C20.549 6.39605 19.7399 5.00105 18.6553 3.83451C18.4984 3.66684 18.2935 3.55192 18.0686 3.50558C17.8438 3.45924 17.6101 3.48375 17.3998 3.57576L15.9403 4.21776C15.7803 4.28749 15.6061 4.3186 15.4319 4.30858C15.2577 4.29856 15.0883 4.24768 14.9374 4.16006C14.7865 4.07245 14.6583 3.95055 14.5632 3.80422C14.4681 3.6579 14.4088 3.49125 14.39 3.31776L14.213 1.72776C14.1883 1.49755 14.0919 1.28089 13.9376 1.10828C13.7833 0.93567 13.5788 0.815788 13.3528 0.765506C12.5826 0.593417 11.7966 0.502173 11.0075 0.493256C10.2137 0.502655 9.42305 0.593887 8.648 0.765506C8.42197 0.814928 8.21723 0.934256 8.06283 1.10657C7.90842 1.27888 7.81218 1.49543 7.78775 1.72551L7.61 3.31701C7.59058 3.49076 7.53075 3.65756 7.43528 3.80404C7.33982 3.95052 7.21138 4.07261 7.06025 4.16053C6.90913 4.24845 6.73951 4.29976 6.56499 4.31035C6.39047 4.32093 6.2159 4.29051 6.05525 4.22151L4.59575 3.57876C4.38517 3.48931 4.15224 3.46652 3.92831 3.51345C3.70438 3.56038 3.5002 3.67478 3.34325 3.84126C2.25848 5.00893 1.4487 6.40452 0.973251 7.92576C0.905582 8.14551 0.907922 8.38086 0.979947 8.59922C1.05197 8.81758 1.19012 9.00814 1.37525 9.14451L2.669 10.0985C2.80993 10.2022 2.92451 10.3376 3.00347 10.4937C3.08244 10.6499 3.12358 10.8224 3.12358 10.9974C3.12358 11.1724 3.08244 11.3449 3.00347 11.501C2.92451 11.6572 2.80993 11.7926 2.669 11.8963L1.37525 12.8525C1.18942 12.9891 1.05087 13.1804 0.978941 13.3995C0.907011 13.6187 0.905283 13.8548 0.974001 14.075C1.44923 15.5972 2.25901 16.9938 3.344 18.1625C3.44715 18.2734 3.57221 18.3617 3.71125 18.4217C3.8503 18.4817 4.0003 18.5122 4.15175 18.5113C4.304 18.5113 4.45475 18.4798 4.595 18.419L6.06125 17.7748C6.22118 17.7057 6.39508 17.675 6.56899 17.6854C6.7429 17.6957 6.91196 17.7467 7.06259 17.8342C7.21322 17.9217 7.34121 18.0434 7.43628 18.1894C7.53135 18.3353 7.59085 18.5016 7.61 18.6748L7.78625 20.2693C7.81185 20.4955 7.9066 20.7084 8.05759 20.8789C8.20859 21.0493 8.40847 21.169 8.63 21.2218V21.221ZM12.7558 19.8215C11.5985 20.0589 10.4052 20.0589 9.248 19.8215L9.10175 18.5165C9.03026 17.8781 8.72584 17.2885 8.24675 16.8605C7.87166 16.5302 7.41083 16.3127 6.91744 16.2331C6.42405 16.1535 5.91819 16.215 5.45825 16.4105L4.25375 16.9355C3.47674 16.0458 2.8788 15.0144 2.49275 13.898L3.56075 13.109C3.89071 12.8659 4.15892 12.5486 4.34376 12.1828C4.5286 11.817 4.62491 11.4129 4.62491 11.003C4.62491 10.5931 4.5286 10.189 4.34376 9.82321C4.15892 9.4574 3.89071 9.14014 3.56075 8.89701L2.495 8.11026C2.88151 6.99497 3.47942 5.96467 4.256 5.07576L5.456 5.60076C5.78675 5.74681 6.14444 5.82192 6.506 5.82126C7.14987 5.81924 7.77053 5.58065 8.24996 5.15086C8.72939 4.72107 9.03414 4.13007 9.10625 3.49026L9.25175 2.18001C9.83225 2.06751 10.4218 2.00751 11.012 2.00001C11.5985 2.00751 12.1835 2.06751 12.7595 2.18001L12.899 3.48501C12.9685 4.12524 13.2722 4.71718 13.7518 5.14701C14.1271 5.4793 14.5891 5.69805 15.0841 5.77772C15.579 5.8574 16.0863 5.79472 16.547 5.597L17.747 5.07201C18.5247 5.96067 19.1232 6.99134 19.5095 8.10725L18.4423 8.89176C18.1106 9.13405 17.8408 9.45119 17.6548 9.81739C17.4688 10.1836 17.3719 10.5885 17.3719 10.9993C17.3719 11.41 17.4688 11.8149 17.6548 12.1811C17.8408 12.5473 18.1106 12.8645 18.4423 13.1068L19.5088 13.8943C19.1221 15.0081 18.525 16.0372 17.75 16.9258L16.55 16.4008C16.1745 16.2336 15.7648 16.1578 15.3543 16.1793C14.9439 16.2009 14.5443 16.3193 14.1884 16.5248C13.8325 16.7304 13.5302 17.0172 13.3064 17.362C13.0825 17.7067 12.9435 18.0995 12.9005 18.5083L12.7558 19.8208V19.8215Z" fill="#EFEFEF"/>
</svg>
