<svg width="32" height="32" viewBox="0 0 32 32" fill="none" xmlns="http://www.w3.org/2000/svg">
    <path d="M28.3048 26.2033C29.9473 24.2288 31.0896 21.888 31.6352 19.3791C32.1808 16.8702 32.1136 14.2668 31.4392 11.7893C30.7649 9.31182 29.5033 7.03304 27.7611 5.14575C26.019 3.25846 23.8475 1.81819 21.4305 0.946778C19.0134 0.0753617 16.4218 -0.201563 13.875 0.139429C11.3282 0.480421 8.90101 1.4293 6.79882 2.90579C4.69663 4.38229 2.98127 6.34296 1.79785 8.62195C0.614425 10.9009 -0.00224457 13.4312 6.13884e-06 15.9987C0.000869812 19.7311 1.31723 23.3439 3.71809 26.2033L3.69522 26.2227C3.77527 26.3187 3.86677 26.401 3.94911 26.4959C4.05204 26.6136 4.16298 26.7244 4.26934 26.8387C4.58957 27.1861 4.91895 27.5197 5.26434 27.8329C5.36956 27.9288 5.4782 28.018 5.58457 28.1094C5.95054 28.4248 6.32681 28.7242 6.7168 29.003C6.76713 29.0373 6.81287 29.0819 6.86319 29.1173V29.1036C9.5418 30.987 12.7372 31.9978 16.0126 31.9978C19.288 31.9978 22.4834 30.987 25.162 29.1036V29.1173C25.2123 29.0819 25.2569 29.0373 25.3084 29.003C25.6972 28.723 26.0746 28.4248 26.4406 28.1094C26.547 28.018 26.6556 27.9277 26.7608 27.8329C27.1062 27.5186 27.4356 27.1861 27.7558 26.8387C27.8622 26.7244 27.972 26.6136 28.0761 26.4959C28.1573 26.401 28.2499 26.3187 28.33 26.2216L28.3048 26.2033ZM16.0114 6.8568C17.0293 6.8568 18.0244 7.15839 18.8707 7.72343C19.717 8.28848 20.3767 9.09159 20.7662 10.0312C21.1557 10.9709 21.2577 12.0048 21.0591 13.0023C20.8605 13.9998 20.3703 14.9161 19.6506 15.6353C18.9308 16.3544 18.0138 16.8442 17.0155 17.0426C16.0172 17.241 14.9824 17.1392 14.042 16.75C13.1015 16.3608 12.2978 15.7017 11.7323 14.856C11.1667 14.0104 10.8649 13.0162 10.8649 11.9991C10.8649 10.6353 11.4071 9.32731 12.3723 8.36294C13.3375 7.39857 14.6465 6.8568 16.0114 6.8568ZM6.87006 26.2033C6.8899 24.7029 7.50016 23.2705 8.56882 22.2162C9.63748 21.1619 11.0786 20.5704 12.5804 20.5696H19.4425C20.9443 20.5704 22.3854 21.1619 23.4541 22.2162C24.5227 23.2705 25.133 24.7029 25.1528 26.2033C22.6446 28.4617 19.3879 29.7116 16.0114 29.7116C12.635 29.7116 9.37831 28.4617 6.87006 26.2033Z" fill="#EFEFEF"/>
</svg>
